<svg id="e17q9YfjBt61" xmlns="http://www.w3.org/2000/svg" xmlns:xlink="http://www.w3.org/1999/xlink" viewBox="0 0 80 80" shape-rendering="geometricPrecision" text-rendering="geometricPrecision" project-id="bcc65ac36e1346208d3c495eacd45122" export-id="ab5902be3ea94d7d99d2a6ade8ccd76a" cached="false" style="background-color:transparent"><rect width="8.073778" height="6.41525" rx="1" ry="1" transform="translate(15.885576 6.872375)" fill="#888"/><rect width="8.073778" height="6.41525" rx="1" ry="1" transform="translate(15.885576 15.615826)" fill="#888"/><rect width="8.073778" height="6.41525" rx="1" ry="1" transform="translate(15.885576 24.359277)" fill="#888"/><rect width="8.073778" height="6.41525" rx="1" ry="1" transform="translate(15.885576 33.102728)" fill="#888"/><rect width="8.073778" height="6.41525" rx="1" ry="1" transform="translate(15.885576 41.846179)" fill="#888"/><rect width="8.073778" height="6.41525" rx="1" ry="1" transform="translate(15.885576 50.58963)" fill="#888"/><rect width="8.073778" height="6.41525" rx="1" ry="1" transform="translate(15.885576 59.333081)" fill="#888"/><rect width="8.073778" height="6.41525" rx="1" ry="1" transform="translate(15.885576 68.076532)" fill="#9cf"/><rect width="8.073778" height="6.41525" rx="1" ry="1" transform="translate(56.040646 68.076532)" fill="#888"/><rect width="8.073778" height="6.41525" rx="1" ry="1" transform="translate(56.040646 59.333082)" fill="#888"/><rect width="8.073778" height="6.41525" rx="1" ry="1" transform="translate(56.040646 50.589631)" fill="#888"/><rect width="8.073778" height="6.41525" rx="1" ry="1" transform="translate(56.040646 41.84618)" fill="#888"/><rect width="8.073778" height="6.41525" rx="1" ry="1" transform="translate(56.040646 33.102729)" fill="#888"/><rect width="8.073778" height="6.41525" rx="1" ry="1" transform="translate(56.040646 24.359277)" fill="#888"/><rect width="8.073778" height="6.41525" rx="1" ry="1" transform="translate(56.040646 15.615826)" fill="#888"/><rect width="8.073778" height="6.41525" rx="1" ry="1" transform="translate(56.040646 6.872374)" fill="#f99"/><rect width="40.15507" height="84.456224" rx="2.5" ry="2.5" transform="matrix(1 0 0 0.89798 19.922465 2.08)" fill="#222" stroke-width="0"/><ellipse rx="8" ry="8" transform="translate(40 2.08)" fill="#808080" stroke-width="0"/><ellipse rx="1" ry="1" transform="translate(26.086091 10.08)" fill="#fff" stroke-width="0"/><rect width="40.15507" height="84.456224" rx="0" ry="0" transform="matrix(1 0 0 0.178666 19.922465-13.009456)" fill="#fff" stroke="#000" stroke-width="0"/><text dx="0" dy="0" font-family="&quot;arial&quot;" font-size="12" font-weight="400" transform="matrix(0 1-1 0 35.838152 19.313504)" fill="#fff" stroke-width="0"><tspan y="0" font-weight="400" stroke-width="0"><![CDATA[
74LS04
]]></tspan></text></svg>
