<svg id="e1CsnwtTJSj1" xmlns="http://www.w3.org/2000/svg" xmlns:xlink="http://www.w3.org/1999/xlink" viewBox="0 0 80 80" shape-rendering="geometricPrecision" text-rendering="geometricPrecision" project-id="c0c982347fed41edab81d7ffed1c0b40" export-id="4c4039c0fe7c4fc29383fb682df93b87" cached="false"><rect width="57.336407" height="65.646032" rx="1.25" ry="1.25" transform="matrix(.87777 0 0 1 14.835911 7.176984)" fill="#d3d3d3" stroke-width="0"/><g transform="translate(3.137366-.000002)"><path d="M14.05803,72.82302v-65.64603h1v65.64603h-1Z" transform="matrix(1 0 0 0.876086 44.964604 4.956556)" fill="#f99" stroke-width="0"/><path d="M14.05803,72.82302v-65.64603h1v65.64603h-1Z" transform="matrix(1 0 0 0.876086 43.964604 4.956556)" fill="#9cf" stroke-width="0"/></g><g transform="translate(-11.635967 0)"><path d="M14.05803,72.82302v-65.64603h1v65.64603h-1Z" transform="matrix(1 0 0 0.876086 44.964604 4.956556)" fill="#f99" stroke-width="0"/><path d="M14.05803,72.82302v-65.64603h1v65.64603h-1Z" transform="matrix(1 0 0 0.876086 43.964604 4.956556)" fill="#9cf" stroke-width="0"/></g><g transform="translate(-26.4093 0.000003)"><path d="M14.05803,72.82302v-65.64603h1v65.64603h-1Z" transform="matrix(1 0 0 0.876086 44.964604 4.956556)" fill="#f99" stroke-width="0"/><path d="M14.05803,72.82302v-65.64603h1v65.64603h-1Z" transform="matrix(1 0 0 0.876086 43.964604 4.956556)" fill="#9cf" stroke-width="0"/></g><g transform="translate(-36.693424 0.000003)"><path d="M14.05803,72.82302v-65.64603h1v65.64603h-1Z" transform="matrix(1 0 0 0.876086 40.475396 4.956553)" fill="#f99" stroke-width="0"/><path d="M14.05803,72.82302v-65.64603h1v65.64603h-1Z" transform="matrix(1 0 0 0.876086 39.475396 4.956555)" fill="#9cf" stroke-width="0"/></g><rect width="12.773332" height="57.511568" rx="0" ry="0" transform="translate(18.840002 11.244214)" fill="#c8c8c8" stroke-width="0"/><rect width="12.773332" height="57.511568" rx="0" ry="0" transform="translate(33.613335 11.244219)" fill="#c8c8c8" stroke-width="0"/><rect width="12.773332" height="57.511568" rx="0" ry="0" transform="translate(48.386668 11.244219)" fill="#c8c8c8" stroke-width="0"/><rect width="3.810679" height="57.511568" rx="0" ry="0" transform="matrix(1.312102 0 0 0.999999 19.53168 11.244243)" fill="#e0e0e0" stroke-width="0"/><rect width="3.810668" height="57.511568" rx="0" ry="0" transform="matrix(1.312106 0 0 0.999999 25.921655 11.244243)" fill="#e0e0e0" stroke-width="0"/><rect width="3.810668" height="57.511568" rx="0" ry="0" transform="matrix(1.312106 0 0 0.999999 40.694987 11.244243)" fill="#e0e0e0" stroke-width="0"/><rect width="3.810668" height="57.511568" rx="0" ry="0" transform="matrix(1.312106 0 0 0.999999 55.468321 11.244214)" fill="#e0e0e0" stroke-width="0"/><rect width="3.810679" height="57.511568" rx="0" ry="0" transform="matrix(1.312102 0 0 0.999999 49.078346 11.244214)" fill="#e0e0e0" stroke-width="0"/><rect width="3.810679" height="57.511568" rx="0" ry="0" transform="matrix(1.312102 0 0 0.999999 34.305012 11.244243)" fill="#e0e0e0" stroke-width="0"/></svg>
