<svg id="etW17fm8g5A1" xmlns="http://www.w3.org/2000/svg" xmlns:xlink="http://www.w3.org/1999/xlink" viewBox="0 0 80 80" shape-rendering="geometricPrecision" text-rendering="geometricPrecision" project-id="067f7fed1375447d898e546cc907a4aa" export-id="2999c8ef2fd34d70bda60d27fcd15d6f" cached="false" style="background-color:transparent"><rect width="47.826974" height="76.097561" rx="0" ry="0" transform="matrix(1 0 0 1.025 16.086513 1)" fill="#4a90e2" stroke="#000" stroke-width="0"/><rect width="17.605805" height="6.79547" rx="0" ry="0" transform="translate(31.197098 4.476649)" fill="#d2dbed" stroke-width="0"/><rect width="17.605805" height="6.79547" rx="0" ry="0" transform="translate(31.197098 12.508053)" fill="#d2dbed" stroke-width="0"/><rect width="17.605805" height="6.79547" rx="0" ry="0" transform="translate(31.197098 20.539457)" fill="#d2dbed" stroke-width="0"/><rect width="17.605805" height="6.79547" rx="0" ry="0" transform="translate(31.197098 36.602265)" fill="#d2dbed" stroke-width="0"/><rect width="6.8" height="6.79547" rx="0" ry="0" transform="translate(31.197098 4.476649)" fill="#fff" stroke="#808080" stroke-width="0.25"/><rect width="6.8" height="6.79547" rx="0" ry="0" transform="translate(31.197098 12.508053)" fill="#fff" stroke="#808080" stroke-width="0.25"/><rect width="6.8" height="6.79547" rx="0" ry="0" transform="translate(31.197098 20.539457)" fill="#fff" stroke="#808080" stroke-width="0.25"/><rect width="17.605805" height="6.79547" rx="0" ry="0" transform="translate(31.197098 52.665073)" fill="#d2dbed" stroke-width="0"/><rect width="17.605805" height="6.79547" rx="0" ry="0" transform="translate(31.197098 60.696477)" fill="#d2dbed" stroke-width="0"/><rect width="17.605805" height="6.79547" rx="0" ry="0" transform="translate(31.197098 68.727881)" fill="#d2dbed" stroke-width="0"/><rect width="17.605805" height="6.79547" rx="0" ry="0" transform="translate(31.197098 44.633669)" fill="#d2dbed" stroke-width="0"/><rect width="17.605805" height="6.79547" rx="0" ry="0" transform="translate(31.197098 28.570861)" fill="#d2dbed" stroke-width="0"/><rect width="6.8" height="6.79547" rx="0" ry="0" transform="translate(31.197098 28.570861)" fill="#fff" stroke="#808080" stroke-width="0.25"/><rect width="6.8" height="6.79547" rx="0" ry="0" transform="translate(31.197098 36.602265)" fill="#fff" stroke="#808080" stroke-width="0.25"/><rect width="6.8" height="6.79547" rx="0" ry="0" transform="translate(31.197098 44.633669)" fill="#fff" stroke="#808080" stroke-width="0.25"/><rect width="6.8" height="6.79547" rx="0" ry="0" transform="translate(31.197098 52.665073)" fill="#fff" stroke="#808080" stroke-width="0.25"/><rect width="6.8" height="6.79547" rx="0" ry="0" transform="translate(31.197098 60.696477)" fill="#fff" stroke="#808080" stroke-width="0.25"/><rect width="6.8" height="6.79547" rx="0" ry="0" transform="translate(31.197098 68.727881)" fill="#fff" stroke="#808080" stroke-width="0.25"/><text dx="0" dy="0" font-family="&quot;arial&quot;" font-size="8" font-weight="400" transform="matrix(0 1-1 0 54.680715 3.907063)" fill="#fff" stroke-width="0"><tspan y="0" font-weight="400" stroke-width="0"><![CDATA[
ON
]]></tspan></text><text dx="0" dy="0" font-family="&quot;arial&quot;" font-size="8" font-weight="400" transform="matrix(0 1-1 0 21.680715 5.650064)" fill="#fff" stroke-width="0"><tspan y="0" font-weight="400" stroke-width="0"><![CDATA[
1 
]]></tspan></text><text dx="0" dy="0" font-family="&quot;arial&quot;" font-size="8" font-weight="400" transform="matrix(0 1-1 0 21.680715 13.681467)" fill="#fff" stroke-width="0"><tspan y="0" font-weight="400" stroke-width="0"><![CDATA[
2 
]]></tspan></text><text dx="0" dy="0" font-family="&quot;arial&quot;" font-size="8" font-weight="400" transform="matrix(0 1-1 0 21.680715 21.712872)" fill="#fff" stroke-width="0"><tspan y="0" font-weight="400" stroke-width="0"><![CDATA[
3 
]]></tspan></text><text dx="0" dy="0" font-family="&quot;arial&quot;" font-size="8" font-weight="400" transform="matrix(0 1-1 0 21.680715 29.744276)" fill="#fff" stroke-width="0"><tspan y="0" font-weight="400" stroke-width="0"><![CDATA[
4 
]]></tspan></text><text dx="0" dy="0" font-family="&quot;arial&quot;" font-size="8" font-weight="400" transform="matrix(0 1-1 0 21.680715 37.77568)" fill="#fff" stroke-width="0"><tspan y="0" font-weight="400" stroke-width="0"><![CDATA[
5 
]]></tspan></text><text dx="0" dy="0" font-family="&quot;arial&quot;" font-size="8" font-weight="400" transform="matrix(0 1-1 0 21.680715 45.807084)" fill="#fff" stroke-width="0"><tspan y="0" font-weight="400" stroke-width="0"><![CDATA[
6 
]]></tspan></text><text dx="0" dy="0" font-family="&quot;arial&quot;" font-size="8" font-weight="400" transform="matrix(0 1-1 0 21.680715 53.838488)" fill="#fff" stroke-width="0"><tspan y="0" font-weight="400" stroke-width="0"><![CDATA[
7 
]]></tspan></text><text dx="0" dy="0" font-family="&quot;arial&quot;" font-size="8" font-weight="400" transform="matrix(0 1-1 0 21.680715 61.869892)" fill="#fff" stroke-width="0"><tspan y="0" font-weight="400" stroke-width="0"><![CDATA[
8 
]]></tspan></text><text dx="0" dy="0" font-family="&quot;arial&quot;" font-size="8" font-weight="400" transform="matrix(0 1-1 0 21.680715 69.901296)" fill="#fff" stroke-width="0"><tspan y="0" font-weight="400" stroke-width="0"><![CDATA[
9 
]]></tspan></text></svg>
